<?xml version="1.0" encoding="utf-8"?>
<!-- Generator: Adobe Illustrator 16.0.0, SVG Export Plug-In . SVG Version: 6.00 Build 0)  -->
<!DOCTYPE svg PUBLIC "-//W3C//DTD SVG 1.1//EN" "http://www.w3.org/Graphics/SVG/1.1/DTD/svg11.dtd">
<svg version="1.1" id="Layer_1" xmlns="http://www.w3.org/2000/svg" xmlns:xlink="http://www.w3.org/1999/xlink" x="0px" y="0px"
	 width="64px" height="64px" viewBox="0 0 64 64" enable-background="new 0 0 64 64" xml:space="preserve">
<g id="Rounded_Rectangle_20_copy">
	<g>
		<polygon fill="#86ABDA" points="49,15 49,1 17,1 17,63 63,63 63,15 		"/>
	</g>
</g>
<g id="Rounded_Rectangle_43">
	<g>
		<path fill="#2B3139" d="M28,7c0.553,0,1-0.447,1-1V2c0-0.553-0.447-1-1-1s-1,0.447-1,1v4C27,6.553,27.447,7,28,7z M28,57
			c-0.553,0-1,0.447-1,1v4c0,0.553,0.447,1,1,1s1-0.447,1-1v-4C29,57.447,28.553,57,28,57z M36,7c0.553,0,1-0.447,1-1V2
			c0-0.553-0.447-1-1-1s-1,0.447-1,1v4C35,6.553,35.447,7,36,7z M36,57c-0.553,0-1,0.447-1,1v4c0,0.553,0.447,1,1,1s1-0.447,1-1v-4
			C37,57.447,36.553,57,36,57z M44,7c0.553,0,1-0.447,1-1V2c0-0.553-0.447-1-1-1s-1,0.447-1,1v4C43,6.553,43.447,7,44,7z M44,57
			c-0.553,0-1,0.447-1,1v4c0,0.553,0.447,1,1,1s1-0.447,1-1v-4C45,57.447,44.553,57,44,57z M52,57c-0.553,0-1,0.447-1,1v4
			c0,0.553,0.447,1,1,1s1-0.447,1-1v-4C53,57.447,52.553,57,52,57z M58,21h4c0.553,0,1-0.447,1-1s-0.447-1-1-1h-4
			c-0.553,0-1,0.447-1,1S57.447,21,58,21z M54,19h-1v-1c0-0.553-0.447-1-1-1s-1,0.447-1,1v1h-1c-0.553,0-1,0.447-1,1s0.447,1,1,1h1
			v1c0,0.553,0.447,1,1,1s1-0.447,1-1v-1h1c0.553,0,1-0.447,1-1S54.553,19,54,19z M46,19h-1v-1c0-0.553-0.447-1-1-1s-1,0.447-1,1v1
			h-1c-0.553,0-1,0.447-1,1s0.447,1,1,1h1v1c0,0.553,0.447,1,1,1s1-0.447,1-1v-1h1c0.553,0,1-0.447,1-1S46.553,19,46,19z M38,19h-1
			v-1c0-0.553-0.447-1-1-1s-1,0.447-1,1v1h-1c-0.553,0-1,0.447-1,1s0.447,1,1,1h1v1c0,0.553,0.447,1,1,1s1-0.447,1-1v-1h1
			c0.553,0,1-0.447,1-1S38.553,19,38,19z M30,19h-1v-1c0-0.553-0.447-1-1-1s-1,0.447-1,1v1h-1c-0.553,0-1,0.447-1,1s0.447,1,1,1h1v1
			c0,0.553,0.447,1,1,1s1-0.447,1-1v-1h1c0.553,0,1-0.447,1-1S30.553,19,30,19z M22,19h-4c-0.553,0-1,0.447-1,1s0.447,1,1,1h4
			c0.553,0,1-0.447,1-1S22.553,19,22,19z M62,27h-4c-0.553,0-1,0.447-1,1s0.447,1,1,1h4c0.553,0,1-0.447,1-1S62.553,27,62,27z
			 M54,27h-1v-1c0-0.553-0.447-1-1-1s-1,0.447-1,1v1h-1c-0.553,0-1,0.447-1,1s0.447,1,1,1h1v1c0,0.553,0.447,1,1,1s1-0.447,1-1v-1h1
			c0.553,0,1-0.447,1-1S54.553,27,54,27z M46,27h-1v-1c0-0.553-0.447-1-1-1s-1,0.447-1,1v1h-1c-0.553,0-1,0.447-1,1s0.447,1,1,1h1v1
			c0,0.553,0.447,1,1,1s1-0.447,1-1v-1h1c0.553,0,1-0.447,1-1S46.553,27,46,27z M38,27h-1v-1c0-0.553-0.447-1-1-1s-1,0.447-1,1v1h-1
			c-0.553,0-1,0.447-1,1s0.447,1,1,1h1v1c0,0.553,0.447,1,1,1s1-0.447,1-1v-1h1c0.553,0,1-0.447,1-1S38.553,27,38,27z M30,27h-1v-1
			c0-0.553-0.447-1-1-1s-1,0.447-1,1v1h-1c-0.553,0-1,0.447-1,1s0.447,1,1,1h1v1c0,0.553,0.447,1,1,1s1-0.447,1-1v-1h1
			c0.553,0,1-0.447,1-1S30.553,27,30,27z M22,27h-4c-0.553,0-1,0.447-1,1s0.447,1,1,1h4c0.553,0,1-0.447,1-1S22.553,27,22,27z
			 M62,35h-4c-0.553,0-1,0.447-1,1s0.447,1,1,1h4c0.553,0,1-0.447,1-1S62.553,35,62,35z M54,35h-1v-1c0-0.553-0.447-1-1-1
			s-1,0.447-1,1v1h-1c-0.553,0-1,0.447-1,1s0.447,1,1,1h1v1c0,0.553,0.447,1,1,1s1-0.447,1-1v-1h1c0.553,0,1-0.447,1-1
			S54.553,35,54,35z M46,35h-1v-1c0-0.553-0.447-1-1-1s-1,0.447-1,1v1h-1c-0.553,0-1,0.447-1,1s0.447,1,1,1h1v1c0,0.553,0.447,1,1,1
			s1-0.447,1-1v-1h1c0.553,0,1-0.447,1-1S46.553,35,46,35z M38,35h-1v-1c0-0.553-0.447-1-1-1s-1,0.447-1,1v1h-1
			c-0.553,0-1,0.447-1,1s0.447,1,1,1h1v1c0,0.553,0.447,1,1,1s1-0.447,1-1v-1h1c0.553,0,1-0.447,1-1S38.553,35,38,35z M30,35h-1v-1
			c0-0.553-0.447-1-1-1s-1,0.447-1,1v1h-1c-0.553,0-1,0.447-1,1s0.447,1,1,1h1v1c0,0.553,0.447,1,1,1s1-0.447,1-1v-1h1
			c0.553,0,1-0.447,1-1S30.553,35,30,35z M22,35h-4c-0.553,0-1,0.447-1,1s0.447,1,1,1h4c0.553,0,1-0.447,1-1S22.553,35,22,35z
			 M62,43h-4c-0.553,0-1,0.447-1,1s0.447,1,1,1h4c0.553,0,1-0.447,1-1S62.553,43,62,43z M54,43h-1v-1c0-0.553-0.447-1-1-1
			s-1,0.447-1,1v1h-1c-0.553,0-1,0.447-1,1s0.447,1,1,1h1v1c0,0.553,0.447,1,1,1s1-0.447,1-1v-1h1c0.553,0,1-0.447,1-1
			S54.553,43,54,43z M46,43h-1v-1c0-0.553-0.447-1-1-1s-1,0.447-1,1v1h-1c-0.553,0-1,0.447-1,1s0.447,1,1,1h1v1c0,0.553,0.447,1,1,1
			s1-0.447,1-1v-1h1c0.553,0,1-0.447,1-1S46.553,43,46,43z M38,43h-1v-1c0-0.553-0.447-1-1-1s-1,0.447-1,1v1h-1
			c-0.553,0-1,0.447-1,1s0.447,1,1,1h1v1c0,0.553,0.447,1,1,1s1-0.447,1-1v-1h1c0.553,0,1-0.447,1-1S38.553,43,38,43z M30,43h-1v-1
			c0-0.553-0.447-1-1-1s-1,0.447-1,1v1h-1c-0.553,0-1,0.447-1,1s0.447,1,1,1h1v1c0,0.553,0.447,1,1,1s1-0.447,1-1v-1h1
			c0.553,0,1-0.447,1-1S30.553,43,30,43z M22,43h-4c-0.553,0-1,0.447-1,1s0.447,1,1,1h4c0.553,0,1-0.447,1-1S22.553,43,22,43z
			 M22,51h-4c-0.553,0-1,0.447-1,1s0.447,1,1,1h4c0.553,0,1-0.447,1-1S22.553,51,22,51z M62,51h-4c-0.553,0-1,0.447-1,1s0.447,1,1,1
			h4c0.553,0,1-0.447,1-1S62.553,51,62,51z M22,11h-4c-0.553,0-1,0.447-1,1s0.447,1,1,1h4c0.553,0,1-0.447,1-1S22.553,11,22,11z
			 M54,51h-1v-1c0-0.553-0.447-1-1-1s-1,0.447-1,1v1h-1c-0.553,0-1,0.447-1,1s0.447,1,1,1h1v1c0,0.553,0.447,1,1,1s1-0.447,1-1v-1h1
			c0.553,0,1-0.447,1-1S54.553,51,54,51z M46,51h-1v-1c0-0.553-0.447-1-1-1s-1,0.447-1,1v1h-1c-0.553,0-1,0.447-1,1s0.447,1,1,1h1v1
			c0,0.553,0.447,1,1,1s1-0.447,1-1v-1h1c0.553,0,1-0.447,1-1S46.553,51,46,51z M38,51h-1v-1c0-0.553-0.447-1-1-1s-1,0.447-1,1v1h-1
			c-0.553,0-1,0.447-1,1s0.447,1,1,1h1v1c0,0.553,0.447,1,1,1s1-0.447,1-1v-1h1c0.553,0,1-0.447,1-1S38.553,51,38,51z M30,51h-1v-1
			c0-0.553-0.447-1-1-1s-1,0.447-1,1v1h-1c-0.553,0-1,0.447-1,1s0.447,1,1,1h1v1c0,0.553,0.447,1,1,1s1-0.447,1-1v-1h1
			c0.553,0,1-0.447,1-1S30.553,51,30,51z M54,11h-1v-1c0-0.553-0.447-1-1-1s-1,0.447-1,1v1h-1c-0.553,0-1,0.447-1,1s0.447,1,1,1h1v1
			c0,0.553,0.447,1,1,1s1-0.447,1-1v-1h1c0.553,0,1-0.447,1-1S54.553,11,54,11z M46,11h-1v-1c0-0.553-0.447-1-1-1s-1,0.447-1,1v1h-1
			c-0.553,0-1,0.447-1,1s0.447,1,1,1h1v1c0,0.553,0.447,1,1,1s1-0.447,1-1v-1h1c0.553,0,1-0.447,1-1S46.553,11,46,11z M38,11h-1v-1
			c0-0.553-0.447-1-1-1s-1,0.447-1,1v1h-1c-0.553,0-1,0.447-1,1s0.447,1,1,1h1v1c0,0.553,0.447,1,1,1s1-0.447,1-1v-1h1
			c0.553,0,1-0.447,1-1S38.553,11,38,11z M30,11h-1v-1c0-0.553-0.447-1-1-1s-1,0.447-1,1v1h-1c-0.553,0-1,0.447-1,1s0.447,1,1,1h1v1
			c0,0.553,0.447,1,1,1s1-0.447,1-1v-1h1c0.553,0,1-0.447,1-1S30.553,11,30,11z"/>
	</g>
</g>
<g id="Rectangle_16">
	<g>
		<polygon fill="#6287BD" points="49,1 49,15 63,15 		"/>
	</g>
</g>
<g id="icon">
	<g>
		<path fill="#2B3139" d="M63.994,14.989c-0.009-0.237-0.098-0.474-0.279-0.655L49.666,0.285c-0.179-0.179-0.411-0.267-0.646-0.277
			C49.014,0.006,49,0,49,0H18c-1.104,0-2,0.896-2,2v60c0,1.104,0.896,2,2,2h44c1.104,0,2-0.896,2-2V15
			C64,15,63.995,14.991,63.994,14.989z M50,3.381L60.619,14C56.477,14,50,14,50,14S50,7.524,50,3.381z M62,62H18V2h30v14h14V62z"/>
	</g>
</g>
<g id="Rectangle_15_copy">
	<g>
		<rect x="1" y="11" fill="#FFFFFF" width="10" height="4"/>
	</g>
</g>
<g id="Ellipse_16">
	<g>
		<path fill="#F9C5DA" d="M6,1C3.238,1,1,3.238,1,6v5c5.625,0,2.238,0,5,0h0.427c-0.01,0,0.081,0,0.367,0H11V6C11,3.238,8.762,1,6,1
			z"/>
	</g>
</g>
<g id="Rectangle_140">
	<g>
		<polygon fill="#F2CAA8" points="1,50 6,62 11,50 		"/>
	</g>
</g>
<g id="Rectangle_16_copy">
	<g>
		<path fill="#F37F80" d="M1,15v35c0,0,2.438-0.562,5,2c2.38-2.38,5-2,5-2V15H1z"/>
	</g>
</g>
<g id="Ellipse_15">
	<g>
		<path fill="#2B3139" d="M6,0C2.687,0,0,2.687,0,6v46l6,12l6-12V6C12,2.687,9.313,0,6,0z M7.186,57H4.814l-2.804-5.914
			C3.525,51.31,5.104,52.001,6,53c0.896-0.999,2.475-1.69,3.989-1.914L7.186,57z M10,49.044c-1.502,0.12-2.875,0.533-4,1.436
			c-1.125-0.902-2.498-1.315-4-1.436V16h8V49.044z M10,14H2v-2h8V14z M10,10H2V6c0-2.209,1.791-4,4-4s4,1.791,4,4V10z M6,47
			c0.553,0,1-0.447,1-1V19c0-0.553-0.447-1-1-1s-1,0.447-1,1v27C5,46.553,5.447,47,6,47z"/>
	</g>
</g>
</svg>
