<?xml version="1.0" encoding="utf-8"?>
<!-- Generator: Adobe Illustrator 16.0.0, SVG Export Plug-In . SVG Version: 6.00 Build 0)  -->
<!DOCTYPE svg PUBLIC "-//W3C//DTD SVG 1.1//EN" "http://www.w3.org/Graphics/SVG/1.1/DTD/svg11.dtd">
<svg version="1.1" id="Layer_1" xmlns="http://www.w3.org/2000/svg" xmlns:xlink="http://www.w3.org/1999/xlink" x="0px" y="0px"
	 width="64px" height="64px" viewBox="0 0 64 64" enable-background="new 0 0 64 64" xml:space="preserve">
<g id="Rounded_Rectangle_62">
	<g>
		<path fill="#C2CDDC" d="M18,37h-8c-1.104,0-2,0.896-2,2s0.896,2,2,2h8c1.104,0,2-0.896,2-2S19.104,37,18,37z M54,37h-8
			c-1.104,0-2,0.896-2,2s0.896,2,2,2h8c1.104,0,2-0.896,2-2S55.104,37,54,37z"/>
	</g>
</g>
<g id="Rectangle_63">
	<g>
		<path fill="#C2CDDC" d="M3,63h22v-6H3V63z M39,57v6h22v-6H39z"/>
	</g>
</g>
<g id="Rectangle_64">
	<g>
		<path fill="#7E8892" d="M10,41L6,57h16l-4-16H10z M54,41h-8l-4,16h16L54,41z M50,37c2.762,0,5-2.238,5-5s-2.238-5-5-5
			s-5,2.238-5,5S47.238,37,50,37z M14,37c2.762,0,5-2.238,5-5s-2.238-5-5-5s-5,2.238-5,5S11.238,37,14,37z"/>
	</g>
</g>
<g id="Rectangle_67">
	<g>
		<path fill="#7E8892" d="M7,53l-1,4h16l-1-4H7z M57,53H43l-1,4h16L57,53z"/>
	</g>
</g>
<g id="Ellipse_8">
	<g>
		<path fill="#2B3139" d="M60,56h-1.218L55.11,41.782C56.217,41.34,57,40.264,57,39c0-1.512-1.121-2.75-2.576-2.957
			C55.399,34.976,56,33.56,56,32c0-3.313-2.687-6-6-6s-6,2.687-6,6c0,1.56,0.601,2.976,1.576,4.043C44.121,36.25,43,37.488,43,39
			c0,1.264,0.783,2.34,1.89,2.782L41.218,56H40c-1.104,0-2,0.896-2,2v4c0,1.104,0.896,2,2,2h20c1.104,0,2-0.896,2-2v-4
			C62,56.896,61.104,56,60,56z M50,28c2.209,0,4,1.791,4,4s-1.791,4-4,4s-4-1.791-4-4S47.791,28,50,28z M46,38h8
			c0.553,0,1,0.447,1,1s-0.447,1-1,1h-8c-0.553,0-1-0.447-1-1S45.447,38,46,38z M46.782,42h6.436l2.583,10.003
			c-0.004,0-0.008-0.003-0.013-0.003H44.199L46.782,42z M43.683,54h12.635l0.517,2H43.166L43.683,54z M60,62H40v-4h20V62z M24,56
			h-1.218L19.11,41.782C20.216,41.34,21,40.264,21,39c0-1.512-1.122-2.75-2.576-2.957C19.4,34.976,20,33.56,20,32
			c0-3.313-2.687-6-6-6s-6,2.687-6,6c0,1.56,0.6,2.976,1.576,4.043C8.122,36.25,7,37.488,7,39c0,1.264,0.784,2.34,1.89,2.782
			L5.218,56H4c-1.104,0-2,0.896-2,2v4c0,1.104,0.896,2,2,2h20c1.104,0,2-0.896,2-2v-4C26,56.896,25.104,56,24,56z M14,28
			c2.209,0,4,1.791,4,4s-1.791,4-4,4s-4-1.791-4-4S11.791,28,14,28z M10,38h8c0.553,0,1,0.447,1,1s-0.447,1-1,1h-8
			c-0.553,0-1-0.447-1-1S9.447,38,10,38z M10.782,42h6.436l2.583,10H8.199L10.782,42z M7.683,54h12.635l0.516,2H7.167L7.683,54z
			 M24,62H4v-4h20V62z"/>
	</g>
</g>
<g id="Rectangle_65">
	<g>
		<path fill="#7E8892" d="M21,55h22c0,0-7-8.799-7-22v-5l3.647-9.118C39.876,18.604,40,18.307,40,18c0-0.24-2.082-3-8-3
			c-5.835,0-8,2.843-8,3c0,0.307,0.124,0.604,0.353,0.882L28,28v5C28,46.144,21,55,21,55z"/>
	</g>
</g>
<g id="Rectangle_61">
	<g>
		<path fill="#C2CDDC" d="M37,29H27c-1.104,0-2,0.896-2,2s0.896,2,2,2h10c1.104,0,2-0.896,2-2S38.104,29,37,29z"/>
	</g>
</g>
<g id="Rectangle_82">
	<g>
		<polygon fill="#7E8892" points="34,5 34,1 30,1 30,5 26,5 26,9 30,9 30,15 34,15 34,9 38,9 38,5 		"/>
	</g>
</g>
<g id="Rectangle_68">
	<g>
		<polygon fill="#C2CDDC" points="45,59 45,55 19,55 19,59 17,59 17,63 47,63 47,59 		"/>
	</g>
</g>
<g id="Rectangle_66">
	<g>
		<rect x="28" y="33" fill="#C2CDDC" width="8" height="4"/>
	</g>
</g>
<g id="Rectangle_60">
	<g>
		<path fill="#2B3139" d="M46,58v-2c0-1.104-0.896-2-2-2h-1c0,0.183-6-10.254-6-20c1.657,0,3-1.344,3-3c0-1.657-1.343-3-3-3l4-10
			c0,0-1.817-2.712-6-3.668V10h2c1.104,0,2-0.896,2-2V6c0-1.104-0.896-2-2-2h-2V2c0-1.104-0.896-2-2-2h-2c-1.104,0-2,0.896-2,2v2h-2
			c-1.104,0-2,0.896-2,2v2c0,1.104,0.896,2,2,2h2v4.32C24.722,15.264,23,18,23,18l4,10c-1.657,0-3,1.343-3,3c0,1.656,1.343,3,3,3
			c0,9.934-6,19.923-6,20h-1c-1.104,0-2,0.896-2,2v2c-1.104,0-2,0.896-2,2v2c0,1.104,0.896,2,2,2h28c1.104,0,2-0.896,2-2v-2
			C48,58.896,47.104,58,46,58z M27,8V6h4V2h2v4h4v2h-4v6h-2V8H27z M25.5,18.583c0,0,1.974-2.583,6.5-2.583
			c4.388,0,6.5,2.667,6.5,2.667L35,28h-6L25.5,18.583z M26,31c0-0.553,0.447-1,1-1h10c0.553,0,1,0.447,1,1s-0.447,1-1,1H27
			C26.447,32,26,31.553,26,31z M35,34v2h-6v-2H35z M28.711,38h6.573c1.125,8.445,5.278,16,5.278,16H23.438
			C23.438,54,27.578,46.378,28.711,38z M20,56h24v2H20V56z M46,62H18v-2h28V62z"/>
	</g>
</g>
</svg>
