<?xml version="1.0" encoding="utf-8"?>
<!-- Generator: Adobe Illustrator 16.0.0, SVG Export Plug-In . SVG Version: 6.00 Build 0)  -->
<!DOCTYPE svg PUBLIC "-//W3C//DTD SVG 1.1//EN" "http://www.w3.org/Graphics/SVG/1.1/DTD/svg11.dtd">
<svg version="1.1" id="Layer_1" xmlns="http://www.w3.org/2000/svg" xmlns:xlink="http://www.w3.org/1999/xlink" x="0px" y="0px"
	 width="24px" height="24px" viewBox="0 0 24 24" enable-background="new 0 0 24 24" xml:space="preserve">
<g>
	<path fill="#FFFFFF" d="M12,1c6.064,0,11,4.935,11,11c0,6.064-4.936,11-11,11C5.935,23,1,18.064,1,12C1,5.935,5.935,1,12,1 M12,0
		C5.373,0,0,5.373,0,12s5.373,12,12,12s12-5.373,12-12S18.627,0,12,0L12,0z"/>
	<g>
		<path fill="#FFFFFF" d="M7.5,17c-0.128,0-0.256-0.049-0.354-0.146c-0.195-0.193-0.195-0.512,0-0.707l9-9
			c0.193-0.195,0.512-0.195,0.707,0c0.193,0.195,0.193,0.512,0,0.707l-9,9C7.756,16.951,7.628,17,7.5,17z"/>
		<path fill="#FFFFFF" d="M16.5,17c-0.128,0-0.256-0.049-0.354-0.146l-9-9c-0.195-0.195-0.195-0.512,0-0.707s0.512-0.195,0.707,0
			l9,9c0.193,0.195,0.193,0.514,0,0.707C16.756,16.951,16.628,17,16.5,17z"/>
	</g>
</g>
</svg>
