<?xml version="1.0" encoding="utf-8"?>
<!-- Generator: Adobe Illustrator 16.0.0, SVG Export Plug-In . SVG Version: 6.00 Build 0)  -->
<!DOCTYPE svg PUBLIC "-//W3C//DTD SVG 1.1//EN" "http://www.w3.org/Graphics/SVG/1.1/DTD/svg11.dtd">
<svg version="1.1" id="Layer_1" xmlns="http://www.w3.org/2000/svg" xmlns:xlink="http://www.w3.org/1999/xlink" x="0px" y="0px"
	 width="64px" height="64px" viewBox="0 0 64 64" enable-background="new 0 0 64 64" xml:space="preserve">
<g id="Rectangle_49">
	<g>
		<path fill="#FFFFFF" d="M44.562,2.562l-4,4l18.812,18.812l4-4L44.562,2.562z M0.417,21.467L4.449,25.5L23.417,6.533L19.384,2.5
			L0.417,21.467z"/>
	</g>
</g>
<g id="Rectangle_47">
	<g>
		<path fill="#FDD7C4" d="M58.137,38.984l-2.854-2.854c3.749-4.254,3.603-10.739-0.463-14.805l-9.177-9.178
			c-3.339-3.338-8.31-4.03-12.338-2.099c-4.228-3.044-10.152-2.677-13.956,1.127l-9.173,9.173c-4.226,4.226-4.226,11.076,0,15.301
			l0.237-0.237l19.89,19.819c0.137,0.27,0.304,0.527,0.529,0.752l4.151,4.152c1.146,1.146,3.006,1.146,4.152,0s1.146-3.006,0-4.152
			l-1.006-1.006l1.848-1.848l2.006,2.006c1.146,1.146,3.006,1.146,4.152,0s1.146-3.006,0-4.152l-2.006-2.006l1.848-1.848
			l2.006,2.006c1.146,1.146,3.006,1.146,4.152,0s1.146-3.006,0-4.152l-2.006-2.006l1.848-1.848l2.006,2.006
			c1.146,1.146,3.006,1.146,4.152,0S59.283,40.131,58.137,38.984z"/>
	</g>
</g>
<g id="Rectangle_48">
	<g>
		<path fill="#2B3139" d="M40.309,44.713c0.388,0.389,1.017,0.389,1.404,0c0.389-0.388,0.389-1.017,0-1.404l-3.021-3.022
			c-0.389-0.388-1.017-0.388-1.405,0c-0.388,0.389-0.388,1.017,0,1.405L40.309,44.713z M46.309,38.713
			c0.388,0.389,1.017,0.389,1.404,0c0.389-0.388,0.389-1.017,0-1.404l-3.021-3.021c-0.389-0.389-1.017-0.389-1.405,0
			c-0.388,0.388-0.388,1.016,0,1.404L46.309,38.713z M31.287,46.286c-0.389,0.389-0.389,1.018,0,1.405l3.021,3.021
			c0.388,0.389,1.017,0.389,1.404,0c0.389-0.388,0.389-1.017,0-1.404l-3.021-3.022C32.303,45.898,31.675,45.898,31.287,46.286z
			 M63.43,20.149L45.851,2.57c-0.782-0.782-2.051-0.782-2.833,0l-2.416,2.416c-0.782,0.782-0.782,2.051,0,2.833l0.521,0.521
			c-2.638-0.646-5.444-0.362-7.936,0.814C30.38,7.21,26.93,6.602,23.72,7.335c0.406-0.758,0.318-1.709-0.321-2.349L20.982,2.57
			c-0.782-0.782-2.051-0.782-2.833,0L0.57,20.149c-0.782,0.782-0.782,2.051,0,2.833l2.416,2.416c0.782,0.782,2.051,0.782,2.833,0
			l0.438-0.438c-0.785,3.706,0.184,7.711,2.936,10.645L9.19,35.607l25.062,25.092c1.57,1.57,3.929,1.758,5.499,0.188
			c1.57-1.569,1.654-4.197,0.084-5.767l-0.479-0.478l0.313-0.312l1.479,1.477c1.57,1.569,4.116,1.569,5.687,0
			c1.569-1.569,1.569-4.114,0-5.684l-1.479-1.479l0.313-0.313l1.479,1.479c1.57,1.569,4.116,1.569,5.687,0
			c1.569-1.569,1.569-4.113,0-5.683l-1.481-1.48l0.313-0.313l1.481,1.48c1.57,1.569,4.116,1.569,5.687,0
			c1.569-1.569,1.569-4.114,0-5.684l-2.086-2.084c2.21-3.084,2.778-6.979,1.687-10.479c0.783,0.571,1.871,0.538,2.578-0.169
			l2.416-2.416C64.212,22.2,64.212,20.932,63.43,20.149z M4.475,24.007l-2.481-2.481L19.525,3.993l2.481,2.481L4.475,24.007z
			 M57.378,39.448c0.809,0.809,0.809,2.12,0,2.93c-0.81,0.809-2.121,0.809-2.93,0l-1.081-1.082c-0.01,0-0.019,0.004-0.028,0.004
			c-0.378-0.679-1.094-1.143-1.925-1.143c-1.221,0-2.211,0.989-2.211,2.21c0,0.654,0.29,1.236,0.741,1.641
			c-0.001,0.002-0.002,0.003-0.003,0.004l1.437,1.437c0.809,0.809,0.809,2.12,0,2.93c-0.81,0.809-2.121,0.809-2.93,0l-1.413-1.413
			l-0.009,0.009c-0.408-0.46-0.996-0.755-1.659-0.755c-1.229,0-2.227,0.997-2.227,2.227c0,0.728,0.354,1.367,0.894,1.774
			l1.344,1.229c0.809,0.809,0.809,2.12,0,2.93c-0.81,0.809-2.121,0.809-2.93,0l-1.446-1.446l-0.006,0.006
			c-0.406-0.439-0.983-0.719-1.629-0.719c-1.229,0-2.164,0.935-2.164,2.164c0,0.872,0.756,1.556,1.173,2.047l0.002,0.019
			c0.809,0.809,0.809,2.12,0,2.93c-0.81,0.809-2.121,0.809-2.93,0L10.907,34.606c-3.888-3.888-3.888-10.19,0-14.077l8.643-8.644
			c3.201-3.2,8.022-3.729,11.802-1.656c-0.521,0.373-1.024,0.776-1.491,1.244c0,0-1.082,1.081-2.718,2.718l-0.026-0.026
			l-7.951,7.951c-1.57,1.57-1.57,4.116,0,5.687s4.116,1.57,5.687,0L35.2,17.455L57.378,39.448z M55.295,34.594L36.268,15.577
			l-0.013,0.019C36.099,15.246,35.751,15,35.344,15c-0.272,0-0.519,0.11-0.699,0.287c-0.132,0.065-0.248,0.158-0.342,0.271
			L23.484,26.377c-0.799,0.799-2.095,0.799-2.894,0s-0.799-2.094,0-2.893l10.487-10.536c3.93-3.931,10.301-3.931,14.23,0l8.743,8.93
			C57.51,25.336,57.922,30.682,55.295,34.594z M59.5,23.986L42.014,6.5L44.5,4.014L61.986,21.5L59.5,23.986z"/>
	</g>
</g>
<g id="Rounded_Rectangle_57">
	<g>
		<path fill="#FEE2D1" d="M16.162,35.812c-1.103-1.106-2.89-1.106-3.992,0l-3.33,3.337c-1.103,1.107-1.103,2.902,0,4.01
			c1.102,1.107,2.89,1.107,3.991,0l3.331-3.336C17.265,38.715,17.265,36.919,16.162,35.812z M22.162,41.812
			c-1.103-1.106-2.89-1.106-3.992,0l-3.33,3.337c-1.103,1.107-1.103,2.902,0,4.01c1.102,1.107,2.89,1.107,3.991,0l3.331-3.336
			C23.265,44.715,23.265,42.919,22.162,41.812z M28.162,47.812c-1.103-1.106-2.89-1.106-3.992,0l-3.33,3.337
			c-1.103,1.107-1.103,2.902,0,4.01c1.102,1.107,2.89,1.107,3.991,0l3.331-3.336C29.265,50.715,29.265,48.919,28.162,47.812z
			 M35.162,52.812c-1.103-1.106-2.89-1.106-3.992,0l-3.33,3.337c-1.103,1.107-1.103,2.902,0,4.01c1.102,1.107,2.89,1.107,3.992,0
			l3.33-3.336C36.265,55.715,36.265,53.919,35.162,52.812z"/>
	</g>
</g>
<g id="Ellipse_33">
	<g>
		<path fill="#2B3139" d="M16.803,40.852c1.57-1.57,1.57-4.116,0-5.687s-4.116-1.57-5.687,0l-2.951,2.952
			c-1.57,1.569-1.57,4.115,0,5.686s4.116,1.57,5.687,0L16.803,40.852z M9.591,42.377c-0.799-0.799-0.799-2.094,0-2.893l2.894-2.894
			c0.799-0.799,2.094-0.799,2.893,0s0.799,2.095,0,2.894l-2.893,2.893C11.686,43.176,10.39,43.176,9.591,42.377z M22.803,46.852
			c1.57-1.57,1.57-4.116,0-5.687s-4.116-1.57-5.687,0l-2.951,2.952c-1.57,1.569-1.57,4.115,0,5.686s4.116,1.57,5.687,0
			L22.803,46.852z M15.591,48.377c-0.799-0.799-0.799-2.094,0-2.893l2.894-2.894c0.799-0.799,2.094-0.799,2.893,0
			s0.799,2.095,0,2.894l-2.893,2.893C17.686,49.176,16.39,49.176,15.591,48.377z M28.803,47.165c-1.57-1.57-4.116-1.57-5.687,0
			l-2.951,2.951c-1.57,1.57-1.57,4.116,0,5.687s4.116,1.57,5.687,0l2.951-2.951C30.373,51.281,30.373,48.735,28.803,47.165z
			 M27.377,51.484l-2.893,2.893c-0.799,0.799-2.095,0.799-2.894,0s-0.799-2.094,0-2.893l2.894-2.894
			c0.799-0.799,2.094-0.799,2.893,0S28.176,50.686,27.377,51.484z M35.803,52.165c-1.57-1.57-4.116-1.57-5.687,0l-2.951,2.952
			c-1.57,1.569-1.57,4.115,0,5.686s4.116,1.57,5.687,0l2.951-2.951C37.373,56.281,37.373,53.735,35.803,52.165z M34.377,56.484
			l-2.893,2.893c-0.799,0.799-2.095,0.799-2.894,0s-0.799-2.094,0-2.893l2.894-2.894c0.799-0.799,2.094-0.799,2.893,0
			S35.176,55.686,34.377,56.484z"/>
	</g>
</g>
</svg>
