<?xml version="1.0" encoding="utf-8"?>
<!-- Generator: Adobe Illustrator 16.0.0, SVG Export Plug-In . SVG Version: 6.00 Build 0)  -->
<!DOCTYPE svg PUBLIC "-//W3C//DTD SVG 1.1//EN" "http://www.w3.org/Graphics/SVG/1.1/DTD/svg11.dtd">
<svg version="1.1" id="Layer_1" xmlns="http://www.w3.org/2000/svg" xmlns:xlink="http://www.w3.org/1999/xlink" x="0px" y="0px"
	 width="24px" height="24px" viewBox="0 0 24 24" enable-background="new 0 0 24 24" xml:space="preserve">
<g>
	<path fill="#FFFFFF" d="M21.5,21h-19C1.122,21,0,19.878,0,18.5v-13C0,4.122,1.122,3,2.5,3h19C22.878,3,24,4.122,24,5.5v13
		C24,19.878,22.878,21,21.5,21z M2.5,4C1.673,4,1,4.673,1,5.5v13C1,19.327,1.673,20,2.5,20h19c0.827,0,1.5-0.673,1.5-1.5v-13
		C23,4.673,22.327,4,21.5,4H2.5z"/>
	<path fill="#FFFFFF" d="M12,15.029c-1.014,0-1.962-0.424-2.67-1.192L0.774,4.482c-0.186-0.204-0.172-0.52,0.032-0.707
		c0.203-0.186,0.52-0.172,0.707,0.032l8.555,9.354c1.03,1.12,2.834,1.121,3.866-0.001l8.512-9.313
		c0.188-0.205,0.504-0.217,0.707-0.032c0.205,0.187,0.22,0.502,0.033,0.707l-8.514,9.313C13.962,14.605,13.014,15.029,12,15.029z"/>
	<path fill="#FFFFFF" d="M1.118,20.383c-0.135,0-0.271-0.055-0.369-0.162c-0.187-0.205-0.172-0.521,0.032-0.707l7.832-7.153
		c0.204-0.186,0.521-0.173,0.707,0.032c0.187,0.205,0.172,0.521-0.032,0.707l-7.832,7.151C1.359,20.339,1.238,20.383,1.118,20.383z"
		/>
	<path fill="#FFFFFF" d="M22.842,20.342c-0.121,0-0.24-0.043-0.337-0.131L14.714,13.1c-0.204-0.186-0.219-0.502-0.032-0.706
		c0.188-0.205,0.504-0.219,0.707-0.032l7.791,7.111c0.203,0.188,0.219,0.504,0.031,0.707C23.111,20.287,22.977,20.342,22.842,20.342
		z"/>
</g>
</svg>
