<?xml version="1.0" encoding="utf-8"?>
<!-- Generator: Adobe Illustrator 16.0.0, SVG Export Plug-In . SVG Version: 6.00 Build 0)  -->
<!DOCTYPE svg PUBLIC "-//W3C//DTD SVG 1.1//EN" "http://www.w3.org/Graphics/SVG/1.1/DTD/svg11.dtd">
<svg version="1.1" id="Layer_1" xmlns="http://www.w3.org/2000/svg" xmlns:xlink="http://www.w3.org/1999/xlink" x="0px" y="0px"
	 width="24px" height="24px" viewBox="0 0 24 24" enable-background="new 0 0 24 24" xml:space="preserve">
<g>
	<path fill="#FFFFFF" d="M21.5,23.846c-0.275,0-0.5-0.225-0.5-0.5c0-2.582-1.57-4.25-4-4.25h-2.5c-0.275,0-0.5-0.225-0.5-0.5v-2.5
		c0-0.277,0.225-0.5,0.5-0.5s0.5,0.223,0.5,0.5v2h2c2.99,0,5,2.108,5,5.25C22,23.621,21.775,23.846,21.5,23.846z"/>
	<path fill="#FFFFFF" d="M2.5,23.846c-0.276,0-0.5-0.225-0.5-0.5c0-3.142,2.01-5.25,5-5.25h2v-1.688c0-0.276,0.224-0.5,0.5-0.5
		s0.5,0.224,0.5,0.5v2.188c0,0.275-0.224,0.5-0.5,0.5H7c-2.431,0-4,1.668-4,4.25C3,23.621,2.776,23.846,2.5,23.846z"/>
	<path fill="#FFFFFF" d="M11.875,17.596c-3.076,0-5.375-3.433-5.375-6.5c0-0.276,0.225-0.5,0.5-0.5s0.5,0.224,0.5,0.5
		c0,2.543,1.911,5.5,4.375,5.5c2.494,0,4.5-3.01,4.5-5.5c0-0.276,0.225-0.5,0.5-0.5s0.5,0.224,0.5,0.5
		C17.375,14.102,14.973,17.596,11.875,17.596z"/>
	<path fill="#FFFFFF" d="M20.381,20.54c-0.176,0-0.348-0.097-0.439-0.265c-0.928-1.713-0.852-4.396-0.77-7.234
		c0.105-3.673,0.227-7.834-1.949-10.073c-1.184-1.219-2.947-1.813-5.389-1.813c-1.856,0-3.248,0.522-4.25,1.599
		c-2.39,2.561-2.03,7.765-1.769,11.563c0.197,2.848,0.314,4.563-0.556,5.098c-0.229,0.145-0.542,0.068-0.688-0.166
		c-0.145-0.234-0.069-0.543,0.164-0.688c0.352-0.276,0.193-2.528,0.08-4.174C4.542,10.402,4.164,4.948,6.848,2.069
		C8.036,0.8,9.709,0.155,11.83,0.155c2.727,0,4.725,0.691,6.105,2.113c2.469,2.543,2.344,6.932,2.23,10.8
		c-0.078,2.701-0.15,5.257,0.646,6.73c0.133,0.243,0.043,0.547-0.199,0.678C20.543,20.521,20.463,20.54,20.381,20.54z"/>
	<path fill="#FFFFFF" d="M8.458,19.096c-0.216,0-0.415-0.142-0.479-0.357C6.217,12.801,6.022,8.882,7.38,6.751
		c1.108-1.738,3.011-2.021,4.538-2.247c0.938-0.141,1.82-0.271,2.212-0.701c0.111-0.122,0.277-0.178,0.438-0.159
		c0.162,0.021,0.305,0.123,0.379,0.271c0.051,0.099,0.125,0.229,0.219,0.396c1.146,2.032,4.631,8.218-0.27,14.591
		c-0.168,0.219-0.482,0.259-0.701,0.092c-0.219-0.168-0.26-0.48-0.092-0.699c4.428-5.76,1.354-11.424,0.242-13.4
		c-0.619,0.354-1.435,0.476-2.28,0.602c-1.465,0.219-2.979,0.441-3.844,1.798c-1.178,1.846-0.938,5.604,0.715,11.163
		c0.078,0.267-0.071,0.543-0.336,0.622C8.553,19.088,8.505,19.096,8.458,19.096z"/>
</g>
</svg>
