<?xml version="1.0" encoding="utf-8"?>
<!-- Generator: Adobe Illustrator 16.0.0, SVG Export Plug-In . SVG Version: 6.00 Build 0)  -->
<!DOCTYPE svg PUBLIC "-//W3C//DTD SVG 1.1//EN" "http://www.w3.org/Graphics/SVG/1.1/DTD/svg11.dtd">
<svg version="1.1" id="Layer_1" xmlns="http://www.w3.org/2000/svg" xmlns:xlink="http://www.w3.org/1999/xlink" x="0px" y="0px"
	 width="24px" height="24px" viewBox="0 0 24 24" enable-background="new 0 0 24 24" xml:space="preserve">
<g>
	<path fill="#FFFFFF" d="M2.065,22.191c-0.051,0-0.104-0.008-0.154-0.022c-0.263-0.085-0.406-0.367-0.321-0.63
		c0.405-1.25,0.883-2.461,1.428-3.627c-1.367-2.551-1.246-5.223,0.357-7.746C6.71,4.917,15.82,1.389,21.414,1.848
		c0.236,0.021,0.428,0.204,0.456,0.44c0.028,0.235-0.115,0.459-0.341,0.533c-7.522,2.453-13.55,7.607-17.087,14.458
		c6.367-0.979,9.251-4.707,12.046-8.316c1.585-2.05,3.082-3.983,5.156-5.45c0.227-0.159,0.539-0.105,0.696,0.12
		c0.16,0.225,0.106,0.538-0.118,0.697c-1.953,1.381-3.406,3.258-4.943,5.245c-3.016,3.896-6.13,7.923-13.368,8.789
		c-0.521,1.12-0.979,2.282-1.37,3.483C2.473,22.061,2.276,22.191,2.065,22.191z M18.422,2.93c-5.15,0.636-11.578,3.643-14.204,7.771
		c-1.276,2.009-1.49,4.046-0.641,6.068C6.787,10.58,11.965,5.735,18.422,2.93z"/>
	<path fill="#FFFFFF" d="M14.835,10.569c-0.015,0-0.026,0-0.042-0.002c-0.646-0.054-0.977-0.07-1.641-0.08
		c-0.276-0.004-0.498-0.23-0.493-0.508c0.003-0.273,0.192-0.492,0.507-0.492c0.691,0.011,1.035,0.027,1.71,0.084
		c0.274,0.023,0.479,0.266,0.456,0.54C15.311,10.373,15.092,10.569,14.835,10.569z"/>
	<path fill="#FFFFFF" d="M10.383,13.162c-0.248,0-0.463-0.186-0.495-0.438c-0.035-0.272,0.157-0.522,0.432-0.561
		c1.355-0.176,2.052-0.219,3.372-0.204c0.274,0.003,0.498,0.229,0.494,0.505c-0.002,0.274-0.23,0.465-0.504,0.495
		c-1.286-0.015-1.917,0.022-3.233,0.194C10.426,13.161,10.404,13.162,10.383,13.162z"/>
</g>
</svg>
