<?xml version="1.0" encoding="utf-8"?>
<!-- Generator: Adobe Illustrator 16.0.0, SVG Export Plug-In . SVG Version: 6.00 Build 0)  -->
<!DOCTYPE svg PUBLIC "-//W3C//DTD SVG 1.1//EN" "http://www.w3.org/Graphics/SVG/1.1/DTD/svg11.dtd">
<svg version="1.1" id="Layer_1" xmlns="http://www.w3.org/2000/svg" xmlns:xlink="http://www.w3.org/1999/xlink" x="0px" y="0px"
	 width="64px" height="64px" viewBox="0 0 64 64" enable-background="new 0 0 64 64" xml:space="preserve">
<g id="Rounded_Rectangle_74">
	<g>
		<path fill="#2B3139" d="M61,56.142V48c0-0.553-0.448-1-1-1H41.858C41.494,45.603,40.4,44.504,39,44.142V39c0-0.553-0.447-1-1-1
			s-1,0.447-1,1v5.142C35.603,44.506,34.504,45.6,34.142,47H8c-0.047,0-0.091,0.011-0.138,0.014C7.422,45.284,5.867,44,4,44
			c-2.209,0-4,1.791-4,4s1.791,4,4,4c1.861,0,3.412-1.278,3.858-3H20v11c0,0.552,0.447,1,1,1h13c0.047,0,0.091-0.011,0.137-0.014
			C34.578,62.716,36.133,64,38,64c2.209,0,4-1.791,4-4s-1.791-4-4-4c-1.861,0-3.412,1.277-3.858,3H22V49h12.142
			c0.446,1.722,1.997,3,3.858,3s3.412-1.278,3.858-3H59v7.142c-1.723,0.445-3,1.997-3,3.858c0,2.209,1.791,4,4,4s4-1.791,4-4
			C64,58.139,62.723,56.587,61,56.142z M4,50c-1.104,0-2-0.896-2-2s0.896-2,2-2s2,0.896,2,2S5.104,50,4,50z M38,58
			c1.104,0,2,0.896,2,2s-0.896,2-2,2s-2-0.896-2-2S36.896,58,38,58z M38,50c-1.104,0-2-0.896-2-2s0.896-2,2-2s2,0.896,2,2
			S39.104,50,38,50z M60,62c-1.104,0-2-0.896-2-2s0.896-2,2-2s2,0.896,2,2S61.104,62,60,62z"/>
	</g>
</g>
<g id="Rectangle_39">
	<g>
		<path fill="#E6F0FA" d="M52,17c-0.698,0-1.379,0.072-2.041,0.196C49.537,8.184,42.117,1,33,1c-7.749,0-14.274,5.189-16.321,12.279
			C15.813,13.098,14.918,13,14,13C6.82,13,1,18.82,1,26s5.82,13,13,13h38c6.075,0,11-4.925,11-11S58.075,17,52,17z"/>
	</g>
</g>
<g id="Ellipse_50">
	<g>
		<path fill="#2B3139" d="M52,16c-0.374,0-0.743,0.022-1.108,0.056C49.921,7.029,42.284,0,33,0c-7.893,0-14.583,5.088-17.012,12.157
			C15.337,12.064,14.677,12,14,12C6.268,12,0,18.268,0,26s6.268,14,14,14h38c6.627,0,12-5.373,12-12S58.627,16,52,16z M52,38H14
			C7.372,38,2,32.627,2,26c0-6.628,5.372-12,12-12c1.181,0,2.319,0.178,3.397,0.495C18.996,7.347,25.369,2,33,2
			c8.837,0,16,7.163,16,16c0,0.158-0.02,0.311-0.023,0.468C49.931,18.165,50.945,18,52,18c5.522,0,10,4.478,10,10S57.522,38,52,38z
			 M14,16C8.478,16,4,20.477,4,26c0,0.552,0.447,1,1,1s1-0.448,1-1c0-4.418,3.582-8,8-8c0.552,0,1-0.448,1-1
			C15,16.447,14.552,16,14,16z M59,27c-0.553,0-1,0.447-1,1c0,3.313-2.687,6-6,6c-0.553,0-1,0.447-1,1s0.447,1,1,1
			c4.418,0,8-3.582,8-8C60,27.447,59.553,27,59,27z"/>
	</g>
</g>
<g id="Ellipse_15">
	<g>
		<path fill="#2B3139" d="M41,23c0,4.971-4.029,9-9,9c-3.113,0-5.831-1.597-7.445-4H26c0.553,0,1-0.448,1-1c0-0.553-0.447-1-1-1
			h-2.477c-0.001-0.002-0.002-0.003-0.002-0.005C23.514,25.996,23.508,26,23.5,26H22c-0.553,0-1,0.447-1,1v4c0,0.552,0.447,1,1,1
			c0.552,0,1-0.448,1-1v-1.733C24.985,32.117,28.262,34,32,34c6.075,0,11-4.925,11-11C43,22.979,41,23,41,23z M42,14
			c-0.553,0-1,0.447-1,1v1.725C39.019,13.874,35.736,12,32,12c-6.075,0-11,4.925-11,11h2c0-4.971,4.029-9,9-9
			c3.112,0,5.831,1.597,7.445,4H38c-0.553,0-1,0.447-1,1s0.447,1,1,1h2.477c0,0.001,0.001,0.003,0.002,0.004
			c0.008,0,0.014-0.004,0.021-0.004H42c0.553,0,1-0.447,1-1v-4C43,14.447,42.553,14,42,14z"/>
	</g>
</g>
</svg>
