<?xml version="1.0" encoding="utf-8"?>
<!-- Generator: Adobe Illustrator 16.0.0, SVG Export Plug-In . SVG Version: 6.00 Build 0)  -->
<!DOCTYPE svg PUBLIC "-//W3C//DTD SVG 1.1//EN" "http://www.w3.org/Graphics/SVG/1.1/DTD/svg11.dtd">
<svg version="1.1" id="Layer_1" xmlns="http://www.w3.org/2000/svg" xmlns:xlink="http://www.w3.org/1999/xlink" x="0px" y="0px"
	 width="24px" height="24px" viewBox="0 0 24 24" enable-background="new 0 0 24 24" xml:space="preserve">
<g>
	<path fill="#FFFFFF" d="M21.5,24h-19C2.225,24,2,23.775,2,23.5v-23C2,0.224,2.225,0,2.5,0h19C21.775,0,22,0.224,22,0.5v23
		C22,23.775,21.775,24,21.5,24z M3,23h18V1H3V23z"/>
	<path fill="#FFFFFF" d="M12,18.5c-1.93,0-3.5-1.57-3.5-3.5s1.57-3.5,3.5-3.5s3.5,1.57,3.5,3.5S13.93,18.5,12,18.5z M12,12.5
		c-1.379,0-2.5,1.122-2.5,2.5s1.121,2.5,2.5,2.5s2.5-1.122,2.5-2.5S13.379,12.5,12,12.5z"/>
	<path fill="#FFFFFF" d="M11,22.5c-0.131,0-0.259-0.051-0.354-0.146l-1.781-1.78l-2.707,0.901c-0.196,0.067-0.417,0.002-0.549-0.162
		c-0.131-0.162-0.146-0.39-0.039-0.568l3-5c0.144-0.237,0.451-0.313,0.687-0.172c0.237,0.143,0.313,0.448,0.173,0.686l-2.306,3.841
		l1.718-0.571c0.182-0.062,0.379-0.014,0.512,0.119l1.377,1.375l0.785-3.143c0.065-0.268,0.334-0.434,0.605-0.363
		c0.27,0.066,0.431,0.338,0.363,0.605l-1,4c-0.043,0.175-0.178,0.313-0.353,0.361C11.09,22.494,11.045,22.5,11,22.5z"/>
	<path fill="#FFFFFF" d="M13,22.5c-0.045,0-0.09-0.006-0.134-0.018c-0.173-0.05-0.308-0.188-0.353-0.361l-1-4c-0.065-0.27,0.096-0.539,0.363-0.605
		c0.266-0.07,0.539,0.096,0.605,0.363l0.785,3.143l1.375-1.375c0.135-0.133,0.334-0.181,0.514-0.119l1.718,0.571l-2.306-3.841
		c-0.144-0.237-0.064-0.543,0.173-0.686c0.233-0.142,0.543-0.065,0.686,0.172l3,5c0.107,0.18,0.093,0.406-0.038,0.568
		c-0.132,0.164-0.353,0.229-0.549,0.162l-2.707-0.901l-1.779,1.78C13.259,22.449,13.131,22.5,13,22.5z"/>
	<path fill="#FFFFFF" d="M16,4H8C7.725,4,7.5,3.776,7.5,3.5S7.725,3,8,3h8c0.275,0,0.5,0.224,0.5,0.5S16.275,4,16,4z"/>
	<path fill="#FFFFFF" d="M16,10H8c-0.275,0-0.5-0.224-0.5-0.5S7.725,9,8,9h8c0.275,0,0.5,0.224,0.5,0.5S16.275,10,16,10z"/>
	<path fill="#FFFFFF" d="M19,7H5C4.725,7,4.5,6.776,4.5,6.5S4.725,6,5,6h14c0.275,0,0.5,0.224,0.5,0.5S19.275,7,19,7z"/>
</g>
</svg>
