<?xml version="1.0" encoding="utf-8"?>
<!-- Generator: Adobe Illustrator 16.0.0, SVG Export Plug-In . SVG Version: 6.00 Build 0)  -->
<!DOCTYPE svg PUBLIC "-//W3C//DTD SVG 1.1//EN" "http://www.w3.org/Graphics/SVG/1.1/DTD/svg11.dtd">
<svg version="1.1" id="Layer_1" xmlns="http://www.w3.org/2000/svg" xmlns:xlink="http://www.w3.org/1999/xlink" x="0px" y="0px"
	 width="24px" height="24px" viewBox="0 0 24 24" enable-background="new 0 0 24 24" xml:space="preserve">
<g>
	<path fill="#FFFFFF" d="M13.505,18.021h-3c-0.276,0-0.5-0.227-0.5-0.5v-7c0-0.275,0.224-0.5,0.5-0.5h3c0.276,0,0.5,0.225,0.5,0.5v7
		C14.005,17.797,13.781,18.021,13.505,18.021z M11.005,17.021h2v-6h-2V17.021z"/>
	<path fill="#FFFFFF" d="M12.005,9.055c-1.106,0-2.006-0.898-2.006-2.006c0-1.108,0.9-2.006,2.006-2.006
		c1.106,0,2.007,0.898,2.007,2.006C14.012,8.157,13.111,9.055,12.005,9.055z M12.005,6.043c-0.555,0-1.006,0.451-1.006,1.006
		c0,0.555,0.451,1.006,1.006,1.006c0.556,0,1.007-0.451,1.007-1.006C13.012,6.494,12.561,6.043,12.005,6.043z"/>
	<path fill="#FFFFFF" d="M12,24C5.383,24,0,18.617,0,12S5.383,0,12,0s12,5.383,12,12S18.617,24,12,24z M12,1C5.935,1,1,5.937,1,12
		c0,6.064,4.935,11,11,11c6.064,0,11-4.936,11-11C23,5.936,18.066,1,12,1z"/>
</g>
</svg>
