<?xml version="1.0" encoding="utf-8"?>
<!-- Generator: Adobe Illustrator 16.0.0, SVG Export Plug-In . SVG Version: 6.00 Build 0)  -->
<!DOCTYPE svg PUBLIC "-//W3C//DTD SVG 1.1//EN" "http://www.w3.org/Graphics/SVG/1.1/DTD/svg11.dtd">
<svg version="1.1" id="Layer_1" xmlns="http://www.w3.org/2000/svg" xmlns:xlink="http://www.w3.org/1999/xlink" x="0px" y="0px"
	 width="64px" height="64px" viewBox="0 0 64 64" enable-background="new 0 0 64 64" xml:space="preserve">
<g id="Rounded_Rectangle_10">
	<g>
		<path fill="#FFFFFF" d="M56,6H8c-3.866,0-7,3.134-7,7v30c0,3.866,3.134,7,7,7h16l8,8l8-8h16c3.866,0,7-3.134,7-7V13
			C63,9.134,59.866,6,56,6z"/>
	</g>
</g>
<g id="Ellipse_19">
	<g>
		<path fill="#767F90" d="M27,32c-1.657,0-3,1.343-3,3s1.343,3,3,3s3-1.343,3-3S28.657,32,27,32z M27,24c1.657,0,3-1.343,3-3
			s-1.343-3-3-3s-3,1.343-3,3S25.343,24,27,24z"/>
	</g>
</g>
<g id="Rectangle_104">
	<g>
		<path fill="#2B3139" d="M27,31c-2.209,0-4,1.791-4,4s1.791,4,4,4s4-1.791,4-4S29.209,31,27,31z M27,37c-1.104,0-2-0.896-2-2
			s0.896-2,2-2s2,0.896,2,2S28.104,37,27,37z M17,9H8c-2.209,0-4,1.791-4,4v9c0,0.552,0.447,1,1,1s1-0.448,1-1v-9
			c0-1.104,0.896-2,2-2h9c0.553,0,1-0.448,1-1C18,9.447,17.553,9,17,9z M37.804,14.598c-0.162-0.334-0.501-0.566-0.897-0.566
			c-0.553,0-1,0.447-1,1c0,0.171,0.047,0.33,0.123,0.471C37.913,19.268,39,23.503,39,28c0,4.483-1.081,8.705-2.954,12.463
			c-0.067,0.134-0.108,0.283-0.108,0.443c0,0.553,0.447,1,1,1c0.371,0,0.691-0.205,0.864-0.506l0.009,0.005
			C39.834,37.367,41,32.824,41,28s-1.166-9.367-3.189-13.405L37.804,14.598z M56,5H8c-4.418,0-8,3.582-8,8v4v22v4
			c0,4.418,3.582,8,8,8h16l8,8l8-8h16c4.418,0,8-3.582,8-8v-4V17v-4C64,8.582,60.418,5,56,5z M62,43c0,3.313-2.687,6-6,6H39l-7,7
			l-7-7H8c-3.313,0-6-2.687-6-6V13c0-3.313,2.687-6,6-6h48c3.313,0,6,2.687,6,6V43z M27,17c-2.209,0-4,1.791-4,4s1.791,4,4,4
			s4-1.791,4-4S29.209,17,27,17z M27,23c-1.104,0-2-0.896-2-2s0.896-2,2-2s2,0.896,2,2S28.104,23,27,23z M59,33
			c-0.553,0-1,0.447-1,1v9c0,1.104-0.896,2-2,2h-9c-0.553,0-1,0.447-1,1c0,0.552,0.447,1,1,1h9c2.209,0,4-1.791,4-4v-9
			C60,33.447,59.553,33,59,33z"/>
	</g>
</g>
</svg>
