<?xml version="1.0" encoding="utf-8"?>
<!-- Generator: Adobe Illustrator 16.0.0, SVG Export Plug-In . SVG Version: 6.00 Build 0)  -->
<!DOCTYPE svg PUBLIC "-//W3C//DTD SVG 1.1//EN" "http://www.w3.org/Graphics/SVG/1.1/DTD/svg11.dtd">
<svg version="1.1" id="Layer_1" xmlns="http://www.w3.org/2000/svg" xmlns:xlink="http://www.w3.org/1999/xlink" x="0px" y="0px"
	 width="24px" height="24px" viewBox="0 0 24 24" enable-background="new 0 0 24 24" xml:space="preserve">
<g>
	<path fill="#FFFFFF" d="M12,23.5C5.659,23.5,0.5,18.341,0.5,12S5.659,0.5,12,0.5S23.5,5.659,23.5,12S18.341,23.5,12,23.5z M12,1.5
		C6.21,1.5,1.5,6.21,1.5,12S6.21,22.5,12,22.5S22.5,17.79,22.5,12S17.79,1.5,12,1.5z"/>
	<g>
		<path fill="#FFFFFF" d="M17.5,12.5h-9C8.224,12.5,8,12.276,8,12s0.224-0.5,0.5-0.5h9c0.275,0,0.5,0.224,0.5,0.5
			S17.775,12.5,17.5,12.5z"/>
	</g>
</g>
</svg>
