<?xml version="1.0" encoding="utf-8"?>
<!-- Generator: Adobe Illustrator 16.0.0, SVG Export Plug-In . SVG Version: 6.00 Build 0)  -->
<!DOCTYPE svg PUBLIC "-//W3C//DTD SVG 1.1//EN" "http://www.w3.org/Graphics/SVG/1.1/DTD/svg11.dtd">
<svg version="1.1" id="Layer_1" xmlns="http://www.w3.org/2000/svg" xmlns:xlink="http://www.w3.org/1999/xlink" x="0px" y="0px"
	 width="24px" height="24px" viewBox="0 0 24 24" enable-background="new 0 0 24 24" xml:space="preserve">
<g>
	<path fill="#FFFFFF" d="M11.5,17.625c-2.819,0-6.363-0.531-7.854-2.021c-0.122-0.121-0.172-0.297-0.134-0.465l1.5-6.5l0.975,0.227
		l-1.434,6.213c1.177,0.947,3.846,1.55,6.946,1.55c3.101,0,5.771-0.603,6.946-1.55L17.01,8.865l0.977-0.227l1.5,6.5
		c0.039,0.168-0.012,0.344-0.135,0.465C17.863,17.094,14.318,17.625,11.5,17.625z"/>
	<path fill="#FFFFFF" d="M11.5,5.75l11,1.5l-11,2.5l-10-2.5L11.5,5.75 M11.5,4.75c-0.05,0-0.099,0.004-0.148,0.011l-10,1.5
		C0.88,6.332,0.524,6.726,0.501,7.202s0.294,0.902,0.756,1.019l10,2.5c0.08,0.021,0.161,0.029,0.243,0.029
		c0.074,0,0.148-0.008,0.222-0.024l11-2.5c0.471-0.107,0.799-0.537,0.775-1.02s-0.385-0.882-0.864-0.947l-11-1.5
		C11.59,4.753,11.545,4.75,11.5,4.75L11.5,4.75z"/>
	<path fill="#FFFFFF" d="M22,16.25c-0.275,0-0.5-0.225-0.5-0.5v-6c0-0.276,0.225-0.5,0.5-0.5s0.5,0.224,0.5,0.5v6
		C22.5,16.025,22.275,16.25,22,16.25z"/>
	<path fill="#FFFFFF" d="M22,19.25c-0.275,0-0.5-0.225-0.5-0.5v-1c0-0.275,0.225-0.5,0.5-0.5s0.5,0.225,0.5,0.5v1
		C22.5,19.025,22.275,19.25,22,19.25z"/>
</g>
</svg>
